<?xml version="1.0" encoding="utf-8"?>
<!-- Generator: Adobe Illustrator 16.0.0, SVG Export Plug-In . SVG Version: 6.00 Build 0)  -->
<!DOCTYPE svg PUBLIC "-//W3C//DTD SVG 1.1//EN" "http://www.w3.org/Graphics/SVG/1.1/DTD/svg11.dtd">
<svg version="1.1" id="Ebene_1" xmlns="http://www.w3.org/2000/svg" xmlns:xlink="http://www.w3.org/1999/xlink" x="0px" y="0px"
	 width="522.1px" height="122.348px" viewBox="0 0 522.1 122.348" enable-background="new 0 0 522.1 122.348" xml:space="preserve">
<g>
	<path fill="#4D4D4D" d="M90.173,102.008V69.732c0-11.094,9.076-20.174,20.17-20.174s20.173,9.08,20.173,20.174v1.008h-10.462
		v-1.008c0-5.414-4.291-9.709-9.711-9.709c-5.423,0-9.708,4.295-9.708,9.709v32.275c0,5.426,4.285,9.711,9.708,9.711
		c5.42,0,9.711-4.285,9.711-9.711v-10.84h-9.711V80.703h20.173v21.305c0,11.102-9.079,20.18-20.173,20.18
		S90.173,113.109,90.173,102.008z"/>
	<path fill="#4D4D4D" d="M159.509,50.57h10.465v70.604h-10.465V50.57z"/>
	<path fill="#4D4D4D" d="M205.649,61.031h-14.872V50.57h40.342v10.461H216.12v60.143h-10.471V61.031z"/>
	<path fill="#4D4D4D" d="M251.922,69.732c0-11.094,9.079-20.174,20.174-20.174c11.1,0,20.173,9.08,20.173,20.174v51.441H281.81
		V69.732c0-5.414-4.291-9.709-9.714-9.709c-5.421,0-9.706,4.295-9.706,9.709v51.441h-10.468V69.732z"/>
	<path fill="#4D4D4D" d="M321.265,50.57h10.464v70.604h-10.464V50.57z"/>
	<path fill="#4D4D4D" d="M360.721,69.732c0-11.094,9.076-20.174,20.172-20.174c11.098,0,20.178,9.08,20.178,20.174v51.441H390.6
		V69.732c0-5.414-4.281-9.709-9.707-9.709c-5.424,0-9.704,4.295-9.704,9.709v51.441h-10.469V69.732z"/>
	<path fill="#4D4D4D" d="M427.542,111.719h5.045c5.42,0,9.705-4.285,9.705-9.711V61.031h-14.75V50.57h25.213v51.438
		c0,11.102-9.078,20.18-20.168,20.18h-5.045V111.719z"/>
	<path fill="#4D4D4D" d="M481.747,69.732c0-11.094,9.08-20.174,20.186-20.174c11.088,0,20.168,9.08,20.168,20.174v51.441h-10.465
		V91.168h-19.412v30.006h-10.477V69.732z M511.635,80.703V69.732c0-5.414-4.285-9.709-9.703-9.709c-5.426,0-9.709,4.295-9.709,9.709
		v10.971H511.635z"/>
</g>
<g>
	<path fill="#4D4D4D" d="M66.184,7.975l-4.958-2.332l-0.863,1.868l4.957,2.331L66.184,7.975z M67.821,3.887
		c0.639-1.372,0.038-3.001-1.333-3.635c-1.372-0.632-3.002-0.034-3.637,1.341l-0.72,1.561l4.952,2.334L67.821,3.887z M63.554,13.659
		l-4.958-2.331l-0.862,1.865l4.961,2.331L63.554,13.659z M60.93,19.341l-4.958-2.33l-0.862,1.867l4.96,2.331L60.93,19.341z
		 M73.799,55.354c0-10.585-7.22-19.844-18.001-24.904l2.506-5.426l-4.954-2.33l-2.662,5.763c-4.26-1.351-8.914-2.094-13.789-2.094
		C16.521,26.362,0,39.343,0,55.354c0,9.35,5.632,17.656,14.371,22.956c-3.215,2.214-5.152,5.051-5.152,8.148
		c0,3.976,3.186,7.528,8.173,9.866c-4.828,4.928-7.82,11.668-7.82,19.114c0,1.295-0.358,2.725,0.269,3.812
		c2.127,3.694,7.393,3.811,10.284,1.287c4.771-4.155,8.723-11.527,15.466-12.692c8.722-1.506,13.711,8.944,19.373,13.453
		c2.782,2.218,7.228,0.645,8.989-2.154c0.648-1.037,0.259-2.448,0.259-3.706c0-7.444-2.983-14.187-7.811-19.114
		c4.991-2.338,8.177-5.891,8.177-9.866c0-3.098-1.936-5.935-5.151-8.148C68.167,73.01,73.799,64.703,73.799,55.354z M63.628,65.554
		c-4.445,2.573-9.576,2.415-14.26,1.057c-1.455-0.42-2.898-0.903-4.347-1.348c-2.701-0.826-5.392-1.763-8.064-2.716
		c-0.012-0.005-0.032-0.015-0.057-0.024c-0.023,0.01-0.044,0.02-0.056,0.024c-2.675,0.953-5.362,1.89-8.063,2.716
		c-1.451,0.444-2.894,0.928-4.349,1.348c-4.683,1.358-9.815,1.517-14.26-1.057c-1.086-0.631-2.224-1.707-3.067-2.767
		c-2.775-3.482-3.171-9.689-0.406-13.353c1.74-2.305,4.591-3.402,7.091-3.399c3.647,0.001,7.286,1.415,10.552,3.369
		c4.645,2.777,8.62,6.862,12.559,10.949c3.939-4.087,7.915-8.172,12.556-10.949c3.269-1.954,6.906-3.368,10.555-3.369
		c2.501-0.003,5.351,1.095,7.092,3.399c2.762,3.663,2.368,9.87-0.409,13.353C65.852,63.847,64.716,64.923,63.628,65.554z"/>
	<path fill="#4D4D4D" d="M31.313,59.921l-10.439-5.355l-10.348-0.263l5.603,1.514c-0.084,0.358-0.132,0.731-0.132,1.115
		c0,2.716,2.201,4.917,4.917,4.917c2.21,0,4.08-1.46,4.698-3.469L31.313,59.921z"/>
	<path fill="#4D4D4D" d="M63.274,54.303l-10.345,0.263l-10.444,5.355l5.704-1.541c0.618,2.009,2.485,3.469,4.698,3.469
		c2.716,0,4.917-2.201,4.917-4.917c0-0.384-0.048-0.757-0.131-1.115L63.274,54.303z"/>
</g>
</svg>
