<?xml version="1.0" encoding="utf-8"?>
<!-- Generator: Adobe Illustrator 16.0.0, SVG Export Plug-In . SVG Version: 6.00 Build 0)  -->
<!DOCTYPE svg PUBLIC "-//W3C//DTD SVG 1.1//EN" "http://www.w3.org/Graphics/SVG/1.1/DTD/svg11.dtd">
<svg version="1.1" id="Ebene_1" xmlns="http://www.w3.org/2000/svg" xmlns:xlink="http://www.w3.org/1999/xlink" x="0px" y="0px"
	 width="147.102px" height="147.097px" viewBox="0 0 147.102 147.097" enable-background="new 0 0 147.102 147.097"
	 xml:space="preserve">
<g>
	<path fill="#F05032" d="M144.326,66.998L80.102,2.775c-3.698-3.7-9.697-3.7-13.398,0L53.368,16.112l16.917,16.917
		c3.932-1.327,8.44-0.437,11.573,2.698c3.152,3.151,4.035,7.699,2.674,11.646l16.306,16.304c3.946-1.359,8.495-0.481,11.647,2.675
		c4.402,4.401,4.402,11.536,0,15.942c-4.406,4.403-11.539,4.403-15.947,0c-3.311-3.314-4.129-8.182-2.451-12.261L78.879,54.825
		v40.018c1.072,0.531,2.085,1.239,2.979,2.131c4.402,4.402,4.402,11.535,0,15.944c-4.402,4.4-11.54,4.4-15.939,0
		c-4.402-4.409-4.402-11.542,0-15.944c1.088-1.087,2.348-1.909,3.693-2.46V54.127c-1.345-0.55-2.602-1.366-3.693-2.46
		c-3.334-3.334-4.136-8.229-2.426-12.323L46.814,22.664L2.774,66.7c-3.699,3.702-3.699,9.701,0,13.401l64.229,64.223
		c3.698,3.698,9.694,3.698,13.397,0l63.926-63.926C148.027,76.698,148.027,70.696,144.326,66.998z"/>
</g>
</svg>
